<?xml version="1.0" encoding="utf-8"?>
<!-- Generator: Adobe Illustrator 21.1.0, SVG Export Plug-In . SVG Version: 6.00 Build 0)  -->
<svg version="1.1" id="レイヤー_1" xmlns="http://www.w3.org/2000/svg" xmlns:xlink="http://www.w3.org/1999/xlink" x="0px"
	 y="0px" viewBox="0 0 565 565" style="enable-background:new 0 0 565 565;" xml:space="preserve">
<style type="text/css">
	.st0{fill-rule:evenodd;clip-rule:evenodd;fill:#FFFFFF;}
	.st1{fill-rule:evenodd;clip-rule:evenodd;fill:#8FC31F;}
	.st2{fill-rule:evenodd;clip-rule:evenodd;fill:#00913A;}
	.st3{fill-rule:evenodd;clip-rule:evenodd;fill:#E60013;}
	.st4{stroke:#FFFFFF;stroke-width:8;stroke-miterlimit:10;}
	.st5{stroke:#FFFFFF;stroke-width:9;stroke-miterlimit:10;}
	.st6{font-family:'KozGoPro-Bold-83pv-RKSJ-H';}
	.st7{font-size:32.7362px;}
</style>
<g>
	<path class="st0" d="M274.2,111.2c-42,71.7,4.8,165.5,91,167.7c53.2,1.4,104.9-47,108.4-105.9c5.1-86.8-79.9-157.4-178.9-162.9
		C153.5,2.3,46.7,97.3,17.8,230.5C60.4,137.2,148.3,78.1,274.2,111.2z M237.8,207.8c-22.9-36.1-63.8-49.5-102-48.9
		c-63.1,1-107.5,66.3-116.4,130.8c-8.7,63,14.8,112.2,43.5,152c56.3,78.1,199.9,145.4,303.6,94.5c-126.9,9.2-207.1-68.1-226.2-162.1
		C223.3,383.3,280.7,275.5,237.8,207.8z M232.4,391c-15.1,140.4,162.9,153.5,241.3,83.9c116.6-103.6,94-325.9-11-397.7
		c59.7,66.9,49.7,232.5-27.9,281.7C395.6,272.9,243,292.1,232.4,391z"/>
	<path class="st1" d="M17.8,230.5C46.7,97.3,153.5,2.3,294.7,10.1c99,5.4,184,76,178.9,162.9c-3.4,58.9-55.2,107.3-108.4,105.9
		c-86.2-2.2-133-96-91-167.7C148.3,78.1,60.4,137.2,17.8,230.5z"/>
	<path class="st2" d="M434.8,358.9c77.6-49.2,87.6-214.9,27.9-281.7c105,71.8,127.5,294.2,11,397.7
		c-78.4,69.7-256.4,56.5-241.3-83.9C243,292.1,395.6,272.9,434.8,358.9z"/>
	<path class="st3" d="M140.3,374.1c19.1,93.9,99.3,171.2,226.2,162.1c-103.6,50.9-247.3-16.3-303.6-94.5
		c-28.7-39.8-52.3-89-43.5-152c8.9-64.5,53.3-129.8,116.4-130.8c38.2-0.6,79.2,12.8,102,48.9C280.7,275.5,223.3,383.3,140.3,374.1z"
		/>
	<polygon class="st1" points="284.6,186 250.7,241.1 296.3,241.1 	"/>
	<polygon class="st1" points="421.4,241.1 456.5,263.1 439,213.6 	"/>
	<polygon class="st2" points="344.3,322.2 365.2,278.9 377,322.2 	"/>
	<polygon class="st2" points="250.7,391.7 234.5,434.8 211,413.3 	"/>
	<polygon class="st3" points="135.8,158.9 135.8,131.4 171,169.3 119.9,160.5 	"/>
	<polygon class="st3" points="231.5,278.9 234.9,322.2 265.7,296.6 	"/>
</g>
<g>
	<path class="st4" d="M149.6,495.4l5-1.4v4.7h4.2v3.6h-4.2v7.9c0,2.2,0.7,3.1,2.3,3.1c0.7,0,1.1-0.1,1.7-0.2l0.1,3.7
		c-0.7,0.3-1.9,0.4-3.4,0.4c-5.5,0-5.6-4.5-5.6-6.6v-8.4h-2.5v-3.6h2.5V495.4z"/>
	<path class="st4" d="M176.4,516.3c-1.6,0.7-3.8,1-6.2,1c-5.9,0-9.3-3.5-9.3-9.2c0-5.2,3.2-9.8,8.8-9.8c4.6,0,7.7,3.1,7.7,9
		c0,0.7,0,1.4-0.1,1.9h-11.5c0.1,3.1,2.5,4.4,5.2,4.4c1.9,0,3.4-0.3,4.7-0.8L176.4,516.3z M172.7,506c0-1.9-0.8-4.2-3.3-4.2
		c-2.4,0-3.5,2.4-3.6,4.2H172.7z"/>
	<path class="st4" d="M191,502.8c-0.8-0.4-2.2-0.9-3.6-0.9c-1.5,0-2.4,0.8-2.4,1.7c0,1,0.7,1.5,2.9,2.4c3.2,1.3,4.7,3,4.7,5.6
		c0,3.5-2.8,5.8-7.5,5.8c-2.1,0-4.1-0.5-5.4-1.2l1-3.5c1,0.6,2.9,1.2,4.5,1.2c1.8,0,2.6-0.7,2.6-1.8c0-1.1-0.7-1.7-2.8-2.6
		c-3.6-1.4-4.9-3.3-4.9-5.3c0-3.3,2.8-5.8,7-5.8c2,0,3.6,0.5,4.7,1L191,502.8z"/>
	<path class="st4" d="M197,495.4l5-1.4v4.7h4.2v3.6H202v7.9c0,2.2,0.7,3.1,2.3,3.1c0.7,0,1.1-0.1,1.7-0.2l0.1,3.7
		c-0.7,0.3-1.9,0.4-3.4,0.4c-5.5,0-5.6-4.5-5.6-6.6v-8.4h-2.5v-3.6h2.5V495.4z"/>
	<path class="st4" d="M208.3,505.4h9.4v3.3h-9.4V505.4z"/>
	<path class="st4" d="M237.6,511.8c0,1.8,0.1,3.9,0.1,5.2h-4.5l-0.2-2.6H233c-1,1.8-3.1,2.9-5.4,2.9c-4.3,0-7.4-3.8-7.4-9.3
		c0-6.2,3.6-9.6,7.7-9.6c2.2,0,3.9,0.9,4.6,2.1h0.1v-9.9h5.1V511.8z M232.6,506.2c0-2.7-1.7-4-3.4-4c-2.6,0-3.9,2.6-3.9,5.7
		c0,3.3,1.4,5.5,3.9,5.5c1.5,0,3.4-1,3.4-3.9V506.2z"/>
	<path class="st4" d="M252.7,503.1c-0.4-0.1-0.8-0.1-1.3-0.1c-2.3,0-4.1,1.5-4.1,4.6v9.4h-5.1v-12.5c0-2.3-0.1-4.1-0.1-5.7h4.4
		l0.2,3.2h0.1c0.9-2.4,3-3.6,4.7-3.6c0.5,0,0.8,0,1.1,0.1V503.1z"/>
	<path class="st4" d="M258,496.4c-1.6,0-2.7-1.1-2.7-2.6c0-1.5,1.1-2.6,2.7-2.6c1.7,0,2.8,1.1,2.8,2.6
		C260.8,495.4,259.6,496.4,258,496.4z M260.6,517h-5.1v-18.2h5.1V517z"/>
	<path class="st4" d="M281.1,498.8l-6.5,18.2h-4.9l-6.4-18.2h5.5l2.5,8.8c0.4,1.6,0.8,3.1,1.1,4.6h0.1c0.3-1.6,0.7-3,1.1-4.6
		l2.4-8.8H281.1z"/>
	<path class="st4" d="M298.2,516.3c-1.6,0.7-3.8,1-6.2,1c-5.9,0-9.3-3.5-9.3-9.2c0-5.2,3.2-9.8,8.8-9.8c4.6,0,7.7,3.1,7.7,9
		c0,0.7,0,1.4-0.1,1.9h-11.5c0.1,3.1,2.5,4.4,5.2,4.4c1.9,0,3.4-0.3,4.7-0.8L298.2,516.3z M294.5,506c0-1.9-0.8-4.2-3.3-4.2
		c-2.4,0-3.5,2.4-3.6,4.2H294.5z"/>
	<path class="st4" d="M319.1,517H314v-10.6c0-2.2-0.8-4-2.9-4c-1.4,0-3.3,1-3.3,3.8V517h-5.1v-12.7c0-2.1-0.1-3.9-0.1-5.5h4.4
		l0.2,2.5h0.1c0.9-1.3,2.8-2.8,5.5-2.8c3.5,0,6.2,2.3,6.2,7.4V517z"/>
	<path class="st4" d="M347.5,511.8c0,1.8,0.1,3.9,0.1,5.2h-4.5l-0.2-2.6h-0.1c-1,1.8-3.1,2.9-5.4,2.9c-4.3,0-7.4-3.8-7.4-9.3
		c0-6.2,3.6-9.6,7.7-9.6c2.2,0,3.9,0.9,4.6,2.1h0.1v-9.9h5.1V511.8z M342.4,506.2c0-2.7-1.7-4-3.4-4c-2.6,0-3.9,2.6-3.9,5.7
		c0,3.3,1.4,5.5,3.9,5.5c1.5,0,3.4-1,3.4-3.9V506.2z"/>
	<path class="st4" d="M366.6,516.3c-1.6,0.7-3.8,1-6.2,1c-5.9,0-9.3-3.5-9.3-9.2c0-5.2,3.2-9.8,8.8-9.8c4.6,0,7.7,3.1,7.7,9
		c0,0.7,0,1.4-0.1,1.9h-11.5c0.1,3.1,2.5,4.4,5.2,4.4c1.9,0,3.4-0.3,4.7-0.8L366.6,516.3z M362.8,506c0-1.9-0.8-4.2-3.3-4.2
		c-2.4,0-3.5,2.4-3.6,4.2H362.8z"/>
	<path class="st4" d="M387,498.8l-6.5,18.2h-4.9l-6.4-18.2h5.5l2.5,8.8c0.4,1.6,0.8,3.1,1.1,4.6h0.1c0.3-1.6,0.7-3,1.1-4.6l2.4-8.8
		H387z"/>
	<path class="st4" d="M404.1,516.3c-1.6,0.7-3.8,1-6.2,1c-5.9,0-9.3-3.5-9.3-9.2c0-5.2,3.2-9.8,8.8-9.8c4.6,0,7.7,3.1,7.7,9
		c0,0.7,0,1.4-0.1,1.9h-11.5c0.1,3.1,2.5,4.4,5.2,4.4c1.9,0,3.4-0.3,4.7-0.8L404.1,516.3z M400.3,506c0-1.9-0.8-4.2-3.3-4.2
		c-2.4,0-3.5,2.4-3.6,4.2H400.3z"/>
	<path class="st4" d="M413.7,517h-5.1v-26.3h5.1V517z"/>
	<path class="st4" d="M435,507.8c0,6.9-4.7,9.6-8.9,9.6c-5.2,0-8.9-3.5-8.9-9.4c0-6.1,3.9-9.6,9.1-9.6
		C431.6,498.4,435,502.2,435,507.8z M426.1,502c-2.8,0-3.8,3.1-3.8,5.9c0,3.2,1.3,5.9,3.8,5.9c2.4,0,3.7-2.7,3.7-6
		C429.8,505,428.7,502,426.1,502z"/>
	<path class="st4" d="M443.3,501.3c1.2-1.9,3.2-2.9,5.7-2.9c4.2,0,7.3,3.7,7.3,9.3c0,6.7-4,9.7-7.9,9.7c-2.1,0-3.7-0.9-4.5-2.1h-0.1
		v9.1h-5.1v-19.6c0-2.4-0.1-4.3-0.1-6h4.4L443.3,501.3L443.3,501.3z M443.7,509.7c0,2.7,1.7,3.9,3.4,3.9c2.6,0,3.9-2.4,3.9-5.7
		c0-3.2-1.3-5.6-3.8-5.6c-2,0-3.5,1.8-3.5,4V509.7z"/>
	<path class="st4" d="M486.3,517h-5v-10.3c0-2.6-0.8-4.4-2.8-4.4c-1.4,0-3,1-3,3.6V517h-5v-10.8c0-2.2-0.7-3.9-2.7-3.9
		c-1.4,0-3.1,1.2-3.1,3.7v11h-5v-12.7c0-2.1-0.1-3.9-0.1-5.5h4.3l0.2,2.4h0.1c0.9-1.3,2.6-2.8,5.4-2.8c2.3,0,4.1,1.2,4.9,3h0.1
		c1.6-2.2,3.5-3,5.7-3c3.3,0,5.9,2.3,5.9,7.5V517z"/>
	<path class="st4" d="M505.3,516.3c-1.6,0.7-3.8,1-6.2,1c-5.9,0-9.3-3.5-9.3-9.2c0-5.2,3.2-9.8,8.8-9.8c4.6,0,7.7,3.1,7.7,9
		c0,0.7,0,1.4-0.1,1.9h-11.5c0.1,3.1,2.5,4.4,5.2,4.4c1.9,0,3.4-0.3,4.7-0.8L505.3,516.3z M501.5,506c0-1.9-0.8-4.2-3.3-4.2
		c-2.4,0-3.5,2.4-3.6,4.2H501.5z"/>
	<path class="st4" d="M526.1,517H521v-10.6c0-2.2-0.8-4-2.9-4c-1.4,0-3.3,1-3.3,3.8V517h-5.1v-12.7c0-2.1-0.1-3.9-0.1-5.5h4.4
		l0.2,2.5h0.1c0.9-1.3,2.8-2.8,5.5-2.8c3.5,0,6.2,2.3,6.2,7.4V517z"/>
	<path class="st4" d="M531.5,495.4l5-1.4v4.7h4.2v3.6h-4.2v7.9c0,2.2,0.7,3.1,2.3,3.1c0.7,0,1.1-0.1,1.7-0.2l0.1,3.7
		c-0.7,0.3-1.9,0.4-3.4,0.4c-5.5,0-5.6-4.5-5.6-6.6v-8.4H529v-3.6h2.5V495.4z"/>
</g>
<g>
	<path class="st5" d="M304.5,435h-15.9V480h-15.8V435h-15.7v-11.2h47.4V435z"/>
	<path class="st5" d="M312.3,424.7c4.8-0.7,11.3-1.2,18.2-1.2c11.5,0,19,1.8,24.8,5.5c6.7,4.4,10.6,11.5,10.6,21.8
		c0,12-5.1,19.3-10.9,23.3c-6.2,4.3-15.6,6.3-27.6,6.3c-6.7,0-11.8-0.4-15.2-0.8V424.7z M328,470.2c1,0.1,2.5,0.1,3.8,0.1
		c10.3,0.1,17.7-5.5,17.7-19.4c0-11.7-6.6-17.5-16.6-17.5c-2.2,0-3.8,0.1-4.8,0.4V470.2z"/>
	<path class="st5" d="M375.4,424.7c4.8-0.7,11.3-1.2,18.2-1.2c11.5,0,19,1.8,24.8,5.5c6.7,4.4,10.6,11.5,10.6,21.8
		c0,12-5.1,19.3-10.9,23.3c-6.2,4.3-15.6,6.3-27.6,6.3c-6.7,0-11.8-0.4-15.2-0.8V424.7z M391.1,470.2c1,0.1,2.5,0.1,3.8,0.1
		c10.3,0.1,17.7-5.5,17.7-19.4c0-11.7-6.6-17.5-16.6-17.5c-2.2,0-3.8,0.1-4.8,0.4V470.2z"/>
	<path class="st5" d="M473.3,450.1c8.2,1.7,13.1,6.9,13.1,13.4c0,4.4-2.3,8.6-6.5,11.6c-4.8,3.4-12.6,5.4-26,5.4
		c-6.7,0-11.9-0.4-15.4-0.8v-55c4.1-0.7,11.5-1.2,18.7-1.2c8.3,0,14.4,0.7,19.6,3.4c4.5,2.3,7.2,6.2,7.2,10.9c0,4.9-3.2,9.6-10.7,12
		V450.1z M457.8,446.3c6.6,0,10.5-2.9,10.5-7c0-4.5-3.9-6.5-9.1-6.5c-2.4,0-3.9,0.1-5,0.4v13.1H457.8z M454.2,470.7
		c1.2,0.2,2.5,0.2,4.4,0.2c6,0,11.3-2.3,11.3-7.8c0-5.7-5.9-7.6-11.7-7.6h-4V470.7z"/>
	<path class="st5" d="M540,478.8c-2.4,0.9-7.8,1.9-14.6,1.9c-22,0-32.4-12.4-32.4-27.9c0-20.1,16.1-29.6,34-29.6
		c7,0,11.8,1.2,13.8,2l-2.9,10.4c-2.3-0.9-5.7-1.7-10-1.7c-10,0-18.3,5.5-18.3,18.1c0,11.7,7.2,17.8,18.4,17.8c3.6,0,7.6-0.6,10-1.3
		L540,478.8z"/>
</g>
<g>
	<path d="M304.5,435h-15.9V480h-15.8V435h-15.7v-11.2h47.4V435z"/>
	<path d="M312.3,424.7c4.8-0.7,11.3-1.2,18.2-1.2c11.5,0,19,1.8,24.8,5.5c6.7,4.4,10.6,11.5,10.6,21.8c0,12-5.1,19.3-10.9,23.3
		c-6.2,4.3-15.6,6.3-27.6,6.3c-6.7,0-11.8-0.4-15.2-0.8V424.7z M328,470.2c1,0.1,2.5,0.1,3.8,0.1c10.3,0.1,17.7-5.5,17.7-19.4
		c0-11.7-6.6-17.5-16.6-17.5c-2.2,0-3.8,0.1-4.8,0.4V470.2z"/>
	<path d="M375.4,424.7c4.8-0.7,11.3-1.2,18.2-1.2c11.5,0,19,1.8,24.8,5.5c6.7,4.4,10.6,11.5,10.6,21.8c0,12-5.1,19.3-10.9,23.3
		c-6.2,4.3-15.6,6.3-27.6,6.3c-6.7,0-11.8-0.4-15.2-0.8V424.7z M391.1,470.2c1,0.1,2.5,0.1,3.8,0.1c10.3,0.1,17.7-5.5,17.7-19.4
		c0-11.7-6.6-17.5-16.6-17.5c-2.2,0-3.8,0.1-4.8,0.4V470.2z"/>
	<path d="M473.3,450.1c8.2,1.7,13.1,6.9,13.1,13.4c0,4.4-2.3,8.6-6.5,11.6c-4.8,3.4-12.6,5.4-26,5.4c-6.7,0-11.9-0.4-15.4-0.8v-55
		c4.1-0.7,11.5-1.2,18.7-1.2c8.3,0,14.4,0.7,19.6,3.4c4.5,2.3,7.2,6.2,7.2,10.9c0,4.9-3.2,9.6-10.7,12V450.1z M457.8,446.3
		c6.6,0,10.5-2.9,10.5-7c0-4.5-3.9-6.5-9.1-6.5c-2.4,0-3.9,0.1-5,0.4v13.1H457.8z M454.2,470.7c1.2,0.2,2.5,0.2,4.4,0.2
		c6,0,11.3-2.3,11.3-7.8c0-5.7-5.9-7.6-11.7-7.6h-4V470.7z"/>
	<path d="M540,478.8c-2.4,0.9-7.8,1.9-14.6,1.9c-22,0-32.4-12.4-32.4-27.9c0-20.1,16.1-29.6,34-29.6c7,0,11.8,1.2,13.8,2l-2.9,10.4
		c-2.3-0.9-5.7-1.7-10-1.7c-10,0-18.3,5.5-18.3,18.1c0,11.7,7.2,17.8,18.4,17.8c3.6,0,7.6-0.6,10-1.3L540,478.8z"/>
</g>
<text transform="matrix(1.0505 0 0 1 145.4954 516.0174)" class="st6 st7">test-driven development</text>
</svg>
